<svg width="1440" height="1024" viewBox="0 0 1440 1024" fill="none" xmlns="http://www.w3.org/2000/svg">
<g clip-path="url(#clip0_106_7)">
<path d="M1440 0H0V1024H1440V0Z" fill="#113555"/>
<path d="M0 -559.407C44 -537.284 164 -465.857 264 -426.667C364 -387.476 496 -358.4 600 -324.267C704 -290.133 792 -245.886 888 -221.867C984 -197.847 1084 -209.225 1176 -180.148C1268 -151.072 1396 -69.5308 1440 -47.4073V1024H0V-559.407Z" fill="url(#paint0_linear_106_7)"/>
<path d="M0 -437.551C36 -417.594 140 -352.664 216 -317.806C292 -282.947 376 -248.089 456 -228.401C536 -208.713 616 -219.365 696 -199.677C776 -179.989 848 -150.188 936 -110.272C1024 -70.3571 1140 4.95566 1224 39.8141C1308 74.6725 1404 89.0343 1440 98.8784V1024H0V-437.551Z" fill="url(#paint1_linear_106_7)"/>
<path d="M0 -220.881C44 -207.242 172 -181.497 264 -139.049C356 -96.602 456 -3.58672 552 33.8039C648 71.1945 744 58.0173 840 85.2943C936 112.571 1028 155.019 1128 197.466C1228 239.914 1388 316.227 1440 339.979V1024H0V-220.881Z" fill="url(#paint2_linear_106_7)"/>
<path d="M0 -193.839C56 -164.396 212 -71.0073 336 -17.1764C460 36.6545 616 80.3718 744 129.146C872 177.92 988 231.751 1104 275.468C1220 319.185 1384 372.119 1440 391.45V1024H0V-193.839Z" fill="url(#paint3_linear_106_7)"/>
<path d="M0 22.8314C44 44.8248 180 125.975 264 154.792C348 183.608 432 161.857 504 195.73C576 229.604 616 324.158 696 358.032C776 391.905 896 375.21 984 398.97C1072 422.73 1148 461.66 1224 500.59C1300 539.52 1404 610.557 1440 632.55V1024H0V22.8314Z" fill="url(#paint4_linear_106_7)"/>
<path d="M0 49.8726C36 62.431 132 84.936 216 125.223C300 165.511 416 246.252 504 291.596C592 336.94 672 372.171 744 397.288C816 422.404 856 417.181 936 442.298C1016 467.414 1140 507.702 1224 547.989C1308 588.276 1404 661.349 1440 684.021V1024H0V49.8726Z" fill="url(#paint5_linear_106_7)"/>
<path d="M0 171.729C44 184.966 180 209.506 264 251.151C348 292.795 424 374.894 504 421.595C584 468.297 664 504.884 744 531.358C824 557.832 912 543.852 984 580.44C1056 617.028 1100 709.24 1176 750.884C1252 792.529 1396 817.07 1440 830.307V1024H0V171.729Z" fill="url(#paint6_linear_106_7)"/>
</g>
<defs>
<linearGradient id="paint0_linear_106_7" x1="720" y1="-559.407" x2="720" y2="1024" gradientUnits="userSpaceOnUse">
<stop stop-color="#2C53A0"/>
<stop offset="1" stop-color="#1E0B28"/>
</linearGradient>
<linearGradient id="paint1_linear_106_7" x1="720" y1="-437.551" x2="720" y2="1024" gradientUnits="userSpaceOnUse">
<stop stop-color="#4B2CA0"/>
<stop offset="1" stop-color="#280B20"/>
</linearGradient>
<linearGradient id="paint2_linear_106_7" x1="720" y1="-220.881" x2="720" y2="1024" gradientUnits="userSpaceOnUse">
<stop stop-color="#342CA0"/>
<stop offset="1" stop-color="#280B26"/>
</linearGradient>
<linearGradient id="paint3_linear_106_7" x1="720" y1="-193.839" x2="720" y2="1024" gradientUnits="userSpaceOnUse">
<stop stop-color="#D4D9F7"/>
<stop offset="1" stop-color="#CB55DD"/>
</linearGradient>
<linearGradient id="paint4_linear_106_7" x1="720" y1="22.8314" x2="720" y2="1024" gradientUnits="userSpaceOnUse">
<stop stop-color="#D7D4F7"/>
<stop offset="1" stop-color="#DD55D4"/>
</linearGradient>
<linearGradient id="paint5_linear_106_7" x1="720" y1="49.8726" x2="720" y2="1024" gradientUnits="userSpaceOnUse">
<stop stop-color="#D4D9F7"/>
<stop offset="1" stop-color="#CB55DD"/>
</linearGradient>
<linearGradient id="paint6_linear_106_7" x1="720" y1="171.729" x2="720" y2="1024" gradientUnits="userSpaceOnUse">
<stop stop-color="#DDD4F7"/>
<stop offset="1" stop-color="#DD55B9"/>
</linearGradient>
<clipPath id="clip0_106_7">
<rect width="1440" height="1024" fill="white"/>
</clipPath>
</defs>
</svg>
