<svg width="64" height="8" viewBox="0 0 64 8" fill="none" xmlns="http://www.w3.org/2000/svg">
<rect width="64" height="8" fill="#C7CEE9"/>
<g clip-path="url(#clip0_0_1)">
<rect width="1440" height="1024" transform="translate(-700 -572)" fill="white"/>
<g clip-path="url(#clip1_0_1)">
<path d="M740 -572H-700V452H740V-572Z" fill="#113555"/>
<path d="M-700 -1131.41C-656 -1109.28 -536 -1037.86 -436 -998.667C-336 -959.476 -204 -930.4 -100 -896.267C4 -862.133 92 -817.886 188 -793.867C284 -769.847 384 -781.225 476 -752.148C568 -723.072 696 -641.531 740 -619.407V452H-700V-1131.41Z" fill="url(#paint0_linear_0_1)"/>
<path d="M-700 -1009.55C-664 -989.594 -560 -924.664 -484 -889.806C-408 -854.947 -324 -820.089 -244 -800.401C-164 -780.713 -84 -791.365 -4 -771.677C76 -751.989 148 -722.188 236 -682.272C324 -642.357 440 -567.044 524 -532.186C608 -497.327 704 -482.966 740 -473.122V452H-700V-1009.55Z" fill="url(#paint1_linear_0_1)"/>
<path d="M-700 -792.881C-656 -779.242 -528 -753.497 -436 -711.049C-344 -668.602 -244 -575.587 -148 -538.196C-52 -500.805 44 -513.983 140 -486.706C236 -459.429 328 -416.981 428 -374.534C528 -332.086 688 -255.773 740 -232.021V452H-700V-792.881Z" fill="url(#paint2_linear_0_1)"/>
<path d="M-700 -765.839C-644 -736.396 -488 -643.007 -364 -589.176C-240 -535.346 -84 -491.628 44 -442.854C172 -394.08 288 -340.249 404 -296.532C520 -252.815 684 -199.881 740 -180.55V452H-700V-765.839Z" fill="url(#paint3_linear_0_1)"/>
<path d="M-700 -549.169C-656 -527.175 -520 -446.025 -436 -417.208C-352 -388.392 -268 -410.143 -196 -376.27C-124 -342.396 -84 -247.842 -4 -213.968C76 -180.095 196 -196.79 284 -173.03C372 -149.27 448 -110.34 524 -71.4103C600 -32.4803 704 38.5568 740 60.5502V452H-700V-549.169Z" fill="url(#paint4_linear_0_1)"/>
<path d="M-700 -522.127C-664 -509.569 -568 -487.064 -484 -446.777C-400 -406.489 -284 -325.748 -196 -280.404C-108 -235.06 -28 -199.829 44 -174.712C116 -149.596 156 -154.819 236 -129.702C316 -104.586 440 -64.2983 524 -24.011C608 16.2762 704 89.3491 740 112.021V452H-700V-522.127Z" fill="url(#paint5_linear_0_1)"/>
<path d="M-700 -400.271C-656 -387.034 -520 -362.494 -436 -320.849C-352 -279.205 -276 -197.106 -196 -150.405C-116 -103.703 -36 -67.1158 44 -40.6417C124 -14.1675 212 -28.1477 284 8.43994C356 45.0276 400 137.24 476 178.884C552 220.529 696 245.07 740 258.307V452H-700V-400.271Z" fill="url(#paint6_linear_0_1)"/>
</g>
<g filter="url(#filter0_d_0_1)">
<rect x="-242" y="-511" width="551" height="895" rx="30" fill="white" fill-opacity="0.94" shape-rendering="crispEdges"/>
<rect x="-241.5" y="-510.5" width="550" height="894" rx="29.5" stroke="black" shape-rendering="crispEdges"/>
</g>
<rect x="21.5609" y="0.942505" width="21.2214" height="6.31789" rx="2.5" fill="#A95EFA"/>
<rect opacity="0.2" x="0.3396" y="0.942505" width="10.6107" height="6.31789" rx="2.5" fill="#8F92A1"/>
<rect opacity="0.2" x="53.393" y="0.942505" width="10.6107" height="6.31789" rx="2.5" fill="#8F92A1"/>
</g>
<defs>
<filter id="filter0_d_0_1" x="-242" y="-511" width="565" height="909" filterUnits="userSpaceOnUse" color-interpolation-filters="sRGB">
<feFlood flood-opacity="0" result="BackgroundImageFix"/>
<feColorMatrix in="SourceAlpha" type="matrix" values="0 0 0 0 0 0 0 0 0 0 0 0 0 0 0 0 0 0 127 0" result="hardAlpha"/>
<feOffset dx="10" dy="10"/>
<feGaussianBlur stdDeviation="2"/>
<feComposite in2="hardAlpha" operator="out"/>
<feColorMatrix type="matrix" values="0 0 0 0 0 0 0 0 0 0 0 0 0 0 0 0 0 0 0.25 0"/>
<feBlend mode="normal" in2="BackgroundImageFix" result="effect1_dropShadow_0_1"/>
<feBlend mode="normal" in="SourceGraphic" in2="effect1_dropShadow_0_1" result="shape"/>
</filter>
<linearGradient id="paint0_linear_0_1" x1="20" y1="-1131.41" x2="20" y2="452" gradientUnits="userSpaceOnUse">
<stop stop-color="#2C53A0"/>
<stop offset="1" stop-color="#1E0B28"/>
</linearGradient>
<linearGradient id="paint1_linear_0_1" x1="20" y1="-1009.55" x2="20" y2="452" gradientUnits="userSpaceOnUse">
<stop stop-color="#4B2CA0"/>
<stop offset="1" stop-color="#280B20"/>
</linearGradient>
<linearGradient id="paint2_linear_0_1" x1="20" y1="-792.881" x2="20" y2="452" gradientUnits="userSpaceOnUse">
<stop stop-color="#342CA0"/>
<stop offset="1" stop-color="#280B26"/>
</linearGradient>
<linearGradient id="paint3_linear_0_1" x1="20" y1="-765.839" x2="20" y2="452" gradientUnits="userSpaceOnUse">
<stop stop-color="#D4D9F7"/>
<stop offset="1" stop-color="#CB55DD"/>
</linearGradient>
<linearGradient id="paint4_linear_0_1" x1="20" y1="-549.169" x2="20" y2="452" gradientUnits="userSpaceOnUse">
<stop stop-color="#D7D4F7"/>
<stop offset="1" stop-color="#DD55D4"/>
</linearGradient>
<linearGradient id="paint5_linear_0_1" x1="20" y1="-522.127" x2="20" y2="452" gradientUnits="userSpaceOnUse">
<stop stop-color="#D4D9F7"/>
<stop offset="1" stop-color="#CB55DD"/>
</linearGradient>
<linearGradient id="paint6_linear_0_1" x1="20" y1="-400.271" x2="20" y2="452" gradientUnits="userSpaceOnUse">
<stop stop-color="#DDD4F7"/>
<stop offset="1" stop-color="#DD55B9"/>
</linearGradient>
<clipPath id="clip0_0_1">
<rect width="1440" height="1024" fill="white" transform="translate(-700 -572)"/>
</clipPath>
<clipPath id="clip1_0_1">
<rect width="1440" height="1024" fill="white" transform="translate(-700 -572)"/>
</clipPath>
</defs>
</svg>
